<?xml version="1.0" encoding="utf-8"?>
<!-- Generator: Adobe Illustrator 24.1.2, SVG Export Plug-In . SVG Version: 6.00 Build 0)  -->
<svg version="1.1" id="Layer_1" xmlns="http://www.w3.org/2000/svg" xmlns:xlink="http://www.w3.org/1999/xlink" x="0px" y="0px"
	 viewBox="0 0 650 410" style="enable-background:new 0 0 650 410;" xml:space="preserve">
<style type="text/css">
	.st0{fill:url(#SVGID_1_);}
	.st1{fill:#53718B;}
	.st2{fill:#2B4A5E;}
	.st3{fill:none;stroke:#F1DDD7;stroke-width:6;stroke-linecap:round;stroke-miterlimit:10;}
	.st4{fill:none;stroke:#F1DDD7;stroke-width:0.845;stroke-linecap:round;stroke-miterlimit:10;}
	.st5{fill:#F1DDD7;}
	.st6{fill:#FFFFFF;}
	.st7{fill:#7CADD1;}
	.st8{fill-rule:evenodd;clip-rule:evenodd;fill:#A66664;}
	.st9{clip-path:url(#SVGID_3_);}
	.st10{fill-rule:evenodd;clip-rule:evenodd;fill:#8A4E53;}
	.st11{fill-rule:evenodd;clip-rule:evenodd;fill:#B6CBD0;}
	.st12{fill-rule:evenodd;clip-rule:evenodd;fill:#FFE9EB;}
	.st13{clip-path:url(#SVGID_5_);}
	.st14{fill-rule:evenodd;clip-rule:evenodd;fill:#E0B8BB;}
	.st15{fill-rule:evenodd;clip-rule:evenodd;fill:#2B4A5E;}
	.st16{fill-rule:evenodd;clip-rule:evenodd;fill:#F1DDD7;}
	.st17{clip-path:url(#SVGID_7_);}
	.st18{clip-path:url(#SVGID_9_);}
	.st19{fill-rule:evenodd;clip-rule:evenodd;fill:#53718B;}
	.st20{fill-rule:evenodd;clip-rule:evenodd;fill:#F09B9B;}
	.st21{clip-path:url(#SVGID_11_);}
	.st22{fill-rule:evenodd;clip-rule:evenodd;fill:#E06E7E;}
	.st23{clip-path:url(#SVGID_13_);}
	.st24{clip-path:url(#SVGID_15_);}
	.st25{clip-path:url(#SVGID_17_);}
	.st26{clip-path:url(#SVGID_19_);}
	.st27{clip-path:url(#SVGID_21_);}
	.st28{fill:#8A4E53;}
	.st29{fill-rule:evenodd;clip-rule:evenodd;fill:#E16074;}
	.st30{opacity:0.32;}
	.st31{clip-path:url(#SVGID_23_);}
	.st32{fill-rule:evenodd;clip-rule:evenodd;fill:#4C2243;}
	.st33{fill:#E06E7E;}
	.st34{fill:none;stroke:#F1DDD7;stroke-width:0.8405;stroke-linecap:round;stroke-linejoin:round;stroke-miterlimit:10;}
</style>
<g>
	
		<linearGradient id="SVGID_1_" gradientUnits="userSpaceOnUse" x1="424.7423" y1="683.2835" x2="424.7423" y2="333.2468" gradientTransform="matrix(1 0 0 -1 -95.9449 727.3622)">
		<stop  offset="8.887236e-04" style="stop-color:#F1DDD7"/>
		<stop  offset="0.1536" style="stop-color:#EBDBD7"/>
		<stop  offset="0.3575" style="stop-color:#DAD4D6"/>
		<stop  offset="0.5905" style="stop-color:#BEC8D4"/>
		<stop  offset="0.8431" style="stop-color:#98B8D2"/>
		<stop  offset="1" style="stop-color:#7CADD1"/>
	</linearGradient>
	<path class="st0" d="M503.2,384.7l-344.5-0.8c0,0-122.9-0.3-132.6-103.4c-9.7-103,101.5-142.6,149.2-143.7s72.4-7,98.2-64.2
		c16.1-37.5,53.4-48.3,78.5-53C416.1,9,450,52.6,461.4,85.6c19.7,56.4,8.2,84.1,69.8,106.6c74.9,27.4,98,57.3,100.6,105.4
		c0.4,7.1,0,14.1-1.7,21C617.4,372,560.2,383.3,503.2,384.7z"/>
	<g>
		<path class="st1" d="M309.3,356.3c0,0-78.2,18.6-123.2-75.3C186.1,280.9,299.7,283.7,309.3,356.3z"/>
	</g>
	<g>
		<path class="st2" d="M268.3,361.5c0,0-44.2,17.1-76.1-32.9C192.2,328.6,258.3,320.8,268.3,361.5z"/>
	</g>
	<g>
		<path class="st1" d="M203.1,359.9c0,0-13.6,12.9-34-1C169.1,358.9,192.5,346.2,203.1,359.9z"/>
	</g>
	<g>
		<path class="st2" d="M348.6,364.4c0,0,79.8,16.2,116.9-76.5C465.5,288,352,293.4,348.6,364.4z"/>
	</g>
	<g>
		<path class="st1" d="M363.3,347c0,0,35.5-10.7,59.8-92.8C423.1,254.1,370.4,291.4,363.3,347z"/>
	</g>
	<g>
		<path class="st1" d="M371.3,357.3c0,0,37.2,28.3,83-11.1C454.3,346.2,393.3,321,371.3,357.3z"/>
	</g>
	<g>
		<path class="st2" d="M448,334.7c0,0,17,8.7,32.2-10.2C480.3,324.5,453.9,318.7,448,334.7z"/>
	</g>
	<g>
		<path class="st2" d="M295.6,359.5c0,0-39.2-12.9-67.5-107.1C228.2,252.4,286.8,295.9,295.6,359.5z"/>
	</g>
	<path class="st3" d="M367.5,402.5l-221.9-1c0,0-78.5-0.4-115.2-55.9"/>
	<path class="st3" d="M289.2,35.6C306,23.1,325.8,17.7,341,14.7c64.5-11.2,98.4,35.2,109.9,70.2c19.7,59.9,8,89.4,70,113.5
		c75.3,29.2,98.4,61.1,101,112.2c0.4,7.5,0,15-1.7,22.3c-13,56.7-70.6,68.6-127.9,70"/>
	<path class="st4" d="M271.4,53.6c0.8-1.2,1.7-2.3,2.6-3.4"/>
	<path class="st3" d="M20.7,326.7c-4.1-10.3-7-22.1-8.1-35.5C3.1,181.8,115,139.9,163,138.9c47.9-1,72.9-7.3,98.9-68"/>
	<g>
		<path class="st5" d="M432.9,404L432.9,404h-5.7c-0.6-0.4-1.1-0.8-1.1-1.4c0-0.6,0.5-1,1.1-0.1l0,0h5.7c0.6-0.9,1.1-0.4,1.1,0.1
			C434,403.2,433.5,403.7,432.9,404z"/>
	</g>
	<g>
		<g transform="matrix(1,0,0,1,567.286,-95.7047)">
			<g>
				<path class="st6" d="M-167.3,208.4c-17.1,0-30.9-13-30.9-28.9s13.9-28.9,30.9-28.9s30.9,13,30.9,28.9S-150.2,208.4-167.3,208.4z
					 M-167.3,152.7c-15.9,0-28.8,12.1-28.8,26.9s12.9,26.9,28.8,26.9s28.8-12.1,28.8-26.9C-138.5,164.7-151.4,152.7-167.3,152.7z"/>
			</g>
		</g>
		<g>
			<g>
				<path class="st6" d="M412.6,95.5h-25.5c-3,0-5.4-2.3-5.4-5V78.2c0-2.8,2.5-5,5.5-5h25.5c3,0,5.4,2.3,5.4,5v12.2
					C418.2,93.2,415.7,95.5,412.6,95.5z M383.3,79.2V91c0,1.7,1.4,3,3.2,3h25.2c1.8,0,3.2-1.3,3.2-3V79.2c0-1.7-1.4-3-3.2-3h-25.2
					C384.8,76.2,383.3,77.5,383.3,79.2z"/>
			</g>
			<g>
				<polygon class="st6" points="407.1,83.6 400.7,83.6 400.7,77.7 397.6,77.7 397.6,83.6 391.2,83.6 391.2,86.6 397.6,86.6 
					397.6,92.5 400.7,92.5 400.7,86.6 407.1,86.6 				"/>
			</g>
			<g>
				<path class="st6" d="M407,73.2h-2.2c0-2.7-2.4-5-5.3-5c-2.9,0-5.3,2.2-5.3,5H392c0-3.8,3.3-7,7.5-7
					C403.7,66.2,407,69.4,407,73.2z"/>
			</g>
		</g>
	</g>
	<g>
		<g transform="matrix(1,0,0,1,-74.4219,166.31)">
			<g>
				<path class="st6" d="M266.1,54c-21.2,0-38.5-16.1-38.5-36s17.3-36,38.5-36c21.2,0,38.5,16.1,38.5,36S287.4,54,266.1,54z
					 M266.1-15.9c-20,0-36.3,15.2-36.3,33.9s16.3,33.9,36.3,33.9s36.3-15.2,36.3-33.9S286.2-15.9,266.1-15.9z"/>
			</g>
		</g>
		<g>
			<g>
				<path class="st6" d="M195.6,191l-18.4-19.4l14.6-12.2l18.4,19.4L195.6,191z M180.3,171.7l15.5,16.4l11.4-9.5l-15.5-16.4
					L180.3,171.7z"/>
			</g>
			<g>
				<path class="st6" d="M205.5,193l-6.8-7.2l5.8-4.8l6.8,7.2L205.5,193z M201.7,185.9l3.9,4.2l2.5-2.1l-3.9-4.2L201.7,185.9z"/>
			</g>
			<g>
				<path class="st6" d="M212.5,203.8h-42.7v-8.9h4.5c-1.1-2.3-1.6-4.9-1.6-7.5c0-5.9,2.8-11.3,7.7-14.9l0.8-0.6l7.2,7.8l-0.9,0.6
					c-1.7,1.1-3.1,2.7-3.7,4.6c-1.2,4.1,0.7,8.1,4.4,10h24.4L212.5,203.8L212.5,203.8z M172.9,202.3h38v-5.9H188
					c-3.8-0.6-6.2-4.2-6.2-8.1c0-3,1.4-5.9,3.9-7.8l-4.1-4.3c-3.8,3-5.9,7.4-5.9,12.1c0,2.7,0.7,5.3,2.1,7.7l0.9,1.8H173
					L172.9,202.3L172.9,202.3z"/>
			</g>
			<g>
				<path class="st6" d="M182.4,169.5l-4.4-4.7l6.5-5.4l4.4,4.7L182.4,169.5z M181.1,165l1.5,1.6l3.3-2.7l-1.5-1.6L181.1,165z"/>
			</g>
		</g>
	</g>
	<g>
		<g transform="matrix(1,0,0,1,869.736,382.728)">
			<g>
				<path class="st6" d="M-416.5-136.2c-22.3,0-40.5-17-40.5-37.8c0-20.8,18.2-37.8,40.5-37.8c22.3,0,40.5,17,40.5,37.8
					C-376-153.2-394.2-136.2-416.5-136.2z M-416.5-209.8c-21.1,0-38.3,16-38.3,35.8s17.2,35.8,38.3,35.8c21.1,0,38.3-16,38.3-35.8
					C-378.2-193.8-395.4-209.8-416.5-209.8z"/>
			</g>
		</g>
		<g>
			<g>
				<path class="st6" d="M447.8,224.9l-12.2-11.4l23.8-22.3l12.2,11.4L447.8,224.9z M438.6,213.5l9.1,8.5l20.7-19.4l-9.1-8.5
					L438.6,213.5z"/>
			</g>
			<g>
				<polygon class="st6" points="459.2,200.6 460.7,199.1 467.2,205.2 465.7,206.6 				"/>
			</g>
			<g>
				<polygon class="st6" points="455.5,204.1 457.1,202.7 463.5,208.7 462,210.2 				"/>
			</g>
			<g>
				<polygon class="st6" points="451.8,207.6 453.3,206.2 459.8,212.2 458.2,213.7 				"/>
			</g>
			<g>
				<polygon class="st6" points="448.1,211.1 449.6,209.6 456.1,215.7 454.5,217.1 				"/>
			</g>
			<g>
				<polygon class="st6" points="444.4,214.5 445.9,213.1 452.3,219.1 450.8,220.6 				"/>
			</g>
			<g>
				<path class="st6" d="M441.4,224.8l-5.7-5.4l4.6-4.4l5.7,5.4L441.4,224.8z M438.7,219.4l2.7,2.5l1.6-1.5l-2.7-2.5L438.7,219.4z"
					/>
			</g>
			<g>
				<path class="st6" d="M466.8,201l-5.7-5.4l4.6-4.4l5.7,5.4L466.8,201z M464.2,195.6l2.7,2.5l1.6-1.5l-2.7-2.5L464.2,195.6z"/>
			</g>
			<g>
				<polygon class="st6" points="430.7,228.1 438.5,220.7 440.1,222.1 432.2,229.5 				"/>
			</g>
			<g>
				<path class="st6" d="M473.8,201.7L460.3,189l3.1-2.9l13.5,12.7L473.8,201.7z M463.4,189l10.5,9.8l0,0L463.4,189L463.4,189z"/>
			</g>
		</g>
	</g>
	<g>
		<g transform="matrix(1,0,0,1,-328.775,648.66)">
			<g>
				<path class="st6" d="M436-377.9c-17.9,0-32.5-13.6-32.5-30.3s14.6-30.3,32.5-30.3s32.5,13.6,32.5,30.3S453.8-377.9,436-377.9z
					 M436-436.5c-16.7,0-30.3,12.7-30.3,28.3c0,15.6,13.6,28.3,30.3,28.3c16.7,0,30.3-12.7,30.3-28.3
					C466.2-423.8,452.6-436.5,436-436.5z"/>
			</g>
		</g>
		<g>
			<path class="st6" d="M116.4,257.1H98.1c-2.3,0-4.2-1.8-4.2-4v-17.3c0-2.2,1.9-4,4.2-4h18.5c2.3,0,4.2,1.8,4.2,4v17.4
				C120.7,255.4,118.8,257.1,116.4,257.1z M97.5,233.4c-1.1,0-2,0.9-2,1.9v18.4c0,1.1,0.9,1.9,2,1.9h18.1c1.1,0,2-0.9,2-1.9v-18.4
				c0-1.1-0.9-1.9-2-1.9H97.5z"/>
		</g>
		<g>
			<path class="st6" d="M114.4,233.4H98.6V223h15.8V233.4z M101.8,231.9h11.1v-7.4h-11.1V231.9z"/>
		</g>
		<g>
			<polygon class="st6" points="114.4,242.3 108.1,242.3 108.1,236.4 105,236.4 105,242.3 98.6,242.3 98.6,245.3 105,245.3 
				105,251.2 108.1,251.2 108.1,245.3 114.4,245.3 			"/>
		</g>
	</g>
	<g>
		<path class="st1" d="M229.5,281.7c0,0-16.7-0.1-33.2-30.2C196.3,251.5,222.5,260.2,229.5,281.7z"/>
	</g>
	<g>
		<path class="st2" d="M412.5,372.5c0,0,13.6,9,45.8-6.4C458.2,366.1,431.5,358.8,412.5,372.5z"/>
	</g>
	<g>
		<path class="st7" d="M265.5,337.4c-0.2,0-0.5-0.1-0.7-0.2l-62.4-45.1c-0.5-0.3-0.6-1-0.2-1.4c0.4-0.4,1.1-0.5,1.5-0.2l62.4,45.1
			c0.5,0.3,0.6,1,0.2,1.4C266.1,337.2,265.8,337.4,265.5,337.4z"/>
	</g>
	<g>
		<path class="st7" d="M265.5,356.3c-0.1,0-0.3,0-0.4-0.1l-54.8-17.6c-0.6-0.2-0.9-0.7-0.7-1.3c0.2-0.5,0.8-0.8,1.4-0.6l54.8,17.6
			c0.6,0.2,0.9,0.7,0.7,1.3C266.3,356,265.9,356.3,265.5,356.3z"/>
	</g>
	<g>
		<path class="st7" d="M379.4,355c-0.6,0-1.1-0.4-1.1-1c0-0.6,0.4-1.1,1-1.1l59.4-4.2c0.6-0.1,1.1,0.4,1.2,1c0,0.6-0.4,1.1-1,1.1
			L379.4,355C379.4,355,379.4,355,379.4,355z"/>
	</g>
	<g>
		<path class="st7" d="M379.4,342.9c-0.4,0-0.7-0.2-0.9-0.4c-0.3-0.5-0.2-1.1,0.3-1.4l66.7-41.3c0.5-0.3,1.2-0.2,1.5,0.3
			c0.3,0.5,0.2,1.1-0.3,1.4L380,342.7C379.8,342.8,379.6,342.9,379.4,342.9z"/>
	</g>
	<g>
		<path class="st7" d="M230.2,311.9c-0.5,0-1-0.4-1.1-0.9l-2.2-17.7c-0.1-0.6,0.4-1.1,0.9-1.1c0.6-0.1,1.1,0.3,1.2,0.9l2.2,17.7
			c0.1,0.6-0.4,1.1-0.9,1.1C230.3,311.9,230.3,311.9,230.2,311.9z"/>
	</g>
	<g>
		<path class="st7" d="M223.2,324.2c-0.5,0-0.9-0.3-1.1-0.8c-0.1-0.5,0.2-1.1,0.8-1.2c19.6-4.3,19.6-4.3,20-3.2
			c0.2,0.5-0.3,1.2-0.8,1.3c-0.2,0.1-0.4,0.1-0.7,0c-2.3,0.4-11.9,2.5-18.1,3.8C223.4,324.2,223.3,324.2,223.2,324.2z"/>
	</g>
	<g>
		<path class="st7" d="M223.2,352.5c-0.4,0-0.7-0.2-0.9-0.5c-0.3-0.5-0.1-1.1,0.4-1.4l11.1-6.2c0.5-0.3,1.2-0.1,1.5,0.3
			c0.3,0.5,0.1,1.1-0.4,1.4l-11.1,6.2C223.6,352.4,223.4,352.5,223.2,352.5z"/>
	</g>
	<g>
		<path class="st7" d="M244.4,349.5c-0.4,0-0.8-0.2-1-0.6l-4.7-10.8c-0.2-0.5,0-1.1,0.6-1.3c0.5-0.2,1.2,0,1.4,0.6l4.7,10.8
			c0.2,0.5,0,1.1-0.6,1.3C244.7,349.5,244.6,349.5,244.4,349.5z"/>
	</g>
	<g>
		<path class="st7" d="M427.2,311.9c-0.1,0-0.2,0-0.3,0c-0.6-0.1-0.9-0.7-0.8-1.3l3.5-12.3c0.1-0.5,0.8-0.9,1.3-0.7
			c0.6,0.1,0.9,0.7,0.8,1.3l-3.5,12.3C428.1,311.6,427.7,311.9,427.2,311.9z"/>
	</g>
	<g>
		<path class="st7" d="M435.7,324.2c-0.1,0-0.1,0-0.2,0l-19.8-3.9c-0.6-0.1-1-0.6-0.8-1.2c0.1-0.5,0.7-0.9,1.3-0.8l19.8,3.9
			c0.6,0.1,1,0.6,0.8,1.2C436.6,323.9,436.2,324.2,435.7,324.2z"/>
	</g>
	<g>
		<path class="st7" d="M401.8,329c-0.1,0-0.2,0-0.3,0c-0.6-0.1-0.9-0.7-0.8-1.2l5.2-20.7c0.1-0.5,0.7-0.9,1.3-0.7s0.9,0.7,0.8,1.2
			l-5.2,20.7C402.7,328.7,402.3,329,401.8,329z"/>
	</g>
	<g>
		<path class="st7" d="M415,352.1c-0.3,0-0.5-0.1-0.7-0.2c-0.5-0.4-0.5-1-0.1-1.4l8.1-9.2c0.4-0.4,1.1-0.5,1.5-0.1
			c0.5,0.4,0.5,1,0.1,1.4l-8.1,9.2C415.6,351.9,415.3,352.1,415,352.1z"/>
	</g>
	<g>
		<path class="st7" d="M409.1,363.5c-0.3,0-0.5-0.1-0.7-0.2l-10.9-8.9c-0.5-0.4-0.5-1-0.1-1.4c0.4-0.4,1.1-0.5,1.5-0.1l10.9,8.9
			c0.5,0.4,0.5,1,0.1,1.4C409.7,363.4,409.4,363.5,409.1,363.5z"/>
	</g>
	<g>
		<g id="Слой5_1_">
			<path class="st8" d="M329.3,94.2c0,0-13.3-9.7-28.5,2s-15.7,18-14.7,31.2c1,13.2,11.3,31.8-8.2,43.9
				C258.4,183.3,244.8,198,253,217l129,2.2c0,0,6.5-28.8-9.9-38.3c-16.4-9.6-32.1-24.9-23.8-46.2C356.7,113.4,341.2,90.7,329.3,94.2
				z"/>
			<g>
				<g>
					<defs>
						<path id="SVGID_2_" d="M329.3,94.2c0,0-13.3-9.7-28.5,2s-15.7,18-14.7,31.2c1,13.2,11.3,31.8-8.2,43.9
							C258.4,183.3,244.8,198,253,217l129,2.2c0,0,6.5-28.8-9.9-38.3c-16.4-9.6-32.1-24.9-23.8-46.2
							C356.7,113.4,341.2,90.7,329.3,94.2z"/>
					</defs>
					<clipPath id="SVGID_3_">
						<use xlink:href="#SVGID_2_"  style="overflow:visible;"/>
					</clipPath>
					<g class="st9">
						<g id="Слой21_1_">
							<path class="st10" d="M288.7,146.7c0,0,2.1,1.1,4-0.3c0,0,1.6,5.3,2.5,10.5c1.2,6.4-2.4,12.6-5.7,15.1
								c-6.7,5-20.5,12.2-25.2,23.4c-4.8,11.2,2-0.3,7.2-2.5c5.2-2.2,20.9-10.5,24.8-13c3.9-2.5,8.8-1.9,9-7.6
								c0.2-5.7,1.5-10.3,0-12.4c-1.5-2.1-9.8-15.3-10.9-16.4c-1.1-1.1-3.3,0.5-4,1.2C289.6,145.2,288.7,146.7,288.7,146.7z"/>
						</g>
						<g id="Слой211_1_" transform="matrix(-0.938041,0,0,1,2606.11,-4.17951)">
							<path class="st10" d="M2409.2,149.8c0,0,2.1,1.1,4-0.3c0,0,1.6,5.3,2.5,10.5c1.2,6.4-2.4,12.6-5.7,15.1
								c-6.7,5-20.5,12.2-25.2,23.4c-4.8,11.2,2-0.3,7.2-2.5c5.2-2.2,20.9-10.5,24.8-13c3.9-2.5,8.8-1.9,9-7.6
								c0.2-5.7,1.5-10.3,0-12.4c-1.5-2.1-9.8-15.3-10.9-16.4c-1.1-1.1-3.3,0.5-4,1.2C2410.1,148.3,2409.2,149.8,2409.2,149.8z"/>
						</g>
					</g>
				</g>
			</g>
		</g>
		<path class="st11" d="M311.6,384.7l20,0.3l-8.9-76.7l-5,3.3L311.6,384.7z"/>
		<g transform="matrix(1,0,0,1,1.07403,-2.09552)">
			<g id="Слой10_1_">
				<path class="st12" d="M303.3,172.6c0,0-69.9,18.3-59.2,95.1l21.7,35.1l-8.3,82.5h57.9l4.6-75.4l6.8,76.9H385L370.5,294
					c0,0,18.7-45.8,17.1-55.5c-1.7-9.7-11-46.4-55.3-65.4L303.3,172.6z"/>
				<g>
					<g>
						<defs>
							<path id="SVGID_4_" d="M303.3,172.6c0,0-69.9,18.3-59.2,95.1l21.7,35.1l-8.2,82.5h57.9l4.6-75.3l6.8,76.8h58L370.5,294
								c0,0,18.7-45.8,17.1-55.5c-1.7-9.7-11-46.4-55.3-65.4L303.3,172.6z"/>
						</defs>
						<clipPath id="SVGID_5_">
							<use xlink:href="#SVGID_4_"  style="overflow:visible;"/>
						</clipPath>
						<g class="st13">
							<g id="Слой12_1_">
								<path class="st14" d="M242.6,235c0.3,10.1,2.4-5.3,13.8-20.8c8.6-11.8,14.9-21.3,30.5-27.8l-4.6,6.3c0,0,7.6,3.4,10.4,6
									l-15,10.7c0,0,14.1,14.3,18.6,22.1c4.5,7.8,8.4-7.3,6.9-13.6c-1.4-6.3-8.2-25.1-5.6-31.9c2.5-6.8,4.9-13.8,4.9-13.8
									s6.9-4.3-2.4-1.6c-6.9,2-28.8,14.6-40.9,29.4C255,205,242.4,229.8,242.6,235z"/>
							</g>
							<g id="Слой121_1_" transform="matrix(-0.948065,0,0,1,2617.37,3.17445)">
								<path class="st14" d="M2351.4,232.7c0.3,10.1,2.4-5.3,13.8-20.8c8.6-11.8,14.9-21.3,30.5-27.8l-4.6,6.3c0,0,7.6,3.4,10.4,6
									l-15,10.7c0,0,14.1,14.3,18.6,22.1c4.5,7.8,8.4-7.3,6.9-13.6c-1.4-6.3-8.2-25.1-5.6-31.9c2.5-6.8,4.9-13.8,4.9-13.8
									s6.9-4.3-2.4-1.6c-6.9,2-28.8,14.6-40.9,29.4C2363.9,202.7,2351.3,227.5,2351.4,232.7z"/>
							</g>
							<g transform="matrix(1.02248,0.126381,-0.123224,0.996938,507.712,-256.731)">
								<polygon class="st14" points="-71.4,491 -72.2,591.5 -153,592.2 -152.2,491.6 								"/>
							</g>
							<g id="Слой18_1_" transform="matrix(1,0,0,1,-1.07403,2.09552)">
								<g transform="matrix(1,0,0,1,2.77652,-8.76934)">
									<path class="st14" d="M261.7,308.2l20.7,2.2l-1.7,6.3c0.4-0.4-5.6,2.7-19.2,0.4L261.7,308.2z"/>
								</g>
								<g transform="matrix(1,0,0,1,0.452438,-7.6642)">
									<path class="st14" d="M360.4,306.1l15.7-5.2l-1.5,9.1c0,0-4.6,2.8-13.4,3.7L360.4,306.1z"/>
								</g>
							</g>
						</g>
					</g>
				</g>
			</g>
		</g>
		<g id="Слой19_1_">
			<g transform="matrix(1.04666,0,0,1.06927,-61.4885,-87.725)">
				<path class="st14" d="M381.9,398l27.2-1.4c0,0,5.3,23.3-11.1,24.4C398,421,379.9,424.8,381.9,398z"/>
			</g>
			<g transform="matrix(-1.028,0,0,1.06927,2748.23,-88.2683)">
				<path class="st14" d="M2376.7,398.4l27.2-1.4c0,0,5.3,23.3-11.1,24.4C2392.9,421.3,2374.7,425.1,2376.7,398.4z"/>
			</g>
		</g>
		<g id="Слой11_1_">
			<path class="st11" d="M298.2,185.6c0,0,32.7,0.6,38.1-0.2c5.3-0.8-1.8,13.4-1.8,13.4s-6.3,32.9-7.3,33.8
				c-1,0.9-20.1-5.7-20.1-5.7l-8.4-20.5L298.2,185.6z"/>
		</g>
		<g id="Слой8_1_">
			<path class="st12" d="M302.2,171.4c0.1-0.1-2.7,35.4,13.3,73.9c0,0,20.7-47.2,17.8-74.4l16.2,21.4l-12,4.4l13.8,12.5
				c0,0-26.4,26.9-35.8,36.1l-33.3-39.6l14.2-10.1l-9.3-4.5C287.1,191.2,292.5,178.9,302.2,171.4z"/>
			<g transform="matrix(0.940319,0.116226,-0.121818,0.985558,594.552,-243.895)">
				<polygon class="st15" points="-174.7,486.4 -175.6,594.5 -250.7,595 -249.8,486.9 				"/>
				<g transform="matrix(0.84774,0,0,0.883275,152.938,153.927)">
					<polygon class="st16" points="-395,381.3 -396,494 -468.1,494.5 -467.1,381.8 					"/>
				</g>
				<g transform="matrix(1,0,0,1,38.1639,149.424)">
					<polygon class="st8" points="-237.9,344.4 -237.9,349.3 -264.8,349.3 -264.7,344.5 					"/>
				</g>
				<g transform="matrix(1,0,0,1.38848,13.6098,-356.815)">
					<polygon class="st8" points="-224.8,609.1 -224.9,615.2 -229,615.2 -228.8,609.1 					"/>
				</g>
				<g transform="matrix(0.866472,0,0,0.89959,145.507,191.43)">
					<path class="st8" d="M-413.5,321.5c-3.7,0-6.7,2.7-6.8,5.9c0,3.2,3,5.8,6.7,5.8c3.7,0,6.7-2.6,6.8-5.9
						C-406.8,324.1-409.8,321.5-413.5,321.5z M-413.5,330c-1.7,0-3.2-1.2-3.2-2.6c0-1.4,1.4-2.6,3.1-2.6c1.7,0,3.1,1.2,3.1,2.6
						C-410.4,328.9-411.8,330-413.5,330z"/>
				</g>
				<g>
					<path class="st2" d="M-185.7,506.7c0,0-0.1,0-0.1,0l-53.9,0.3c-0.6,0-1.2-0.5-1.2-1c0-0.6,0.5-1,1.2-1l53.9-0.3
						c0.7,0,1.2,0.5,1.2,1C-184.7,506.2-185.1,506.7-185.7,506.7z"/>
				</g>
				<g transform="matrix(1,0,0,1,-1.54807,104.973)">
					<g>
						<path class="st2" d="M-184.8,428.6c0,0-0.1,0-0.1,0l-53.9,0.3c-0.6,0-1.2-0.5-1.2-1c0-0.6,0.5-1.1,1.2-1l53.9-0.3
							c0.7,0,1.2,0.5,1.2,1C-183.8,428.1-184.2,428.5-184.8,428.6z"/>
					</g>
				</g>
				<g transform="matrix(1,0,0,1,0.585984,52.1607)">
					<g>
						<path class="st2" d="M-186.3,467.9c0,0-0.1,0-0.1,0l-53.9,0.3c-0.6,0-1.2-0.5-1.2-1c0-0.6,0.5-1.1,1.2-1l53.9-0.3
							c0.7,0,1.2,0.5,1.2,1C-185.2,467.4-185.7,467.8-186.3,467.9z"/>
					</g>
				</g>
				<g transform="matrix(1,0,0,1,-0.962085,157.133)">
					<g>
						<path class="st2" d="M-185.3,389.8c0,0-0.1,0-0.1,0l-53.9,0.3c-0.6,0-1.2-0.5-1.2-1c0-0.6,0.5-1.1,1.2-1l53.9-0.3
							c0.7,0,1.2,0.5,1.2,1C-184.3,389.3-184.8,389.7-185.3,389.8z"/>
					</g>
				</g>
				<g transform="matrix(1,0,0,1,-0.849567,24.9181)">
					<g>
						<path class="st2" d="M-185.1,488.2c0,0-0.1,0-0.1,0l-53.9,0.3c-0.6,0-1.2-0.5-1.2-1c0-0.6,0.5-1.1,1.2-1l53.9-0.3
							c0.7,0,1.2,0.5,1.2,1C-184.1,487.7-184.6,488.1-185.1,488.2z"/>
					</g>
				</g>
				<g transform="matrix(1,0,0,1,-2.39764,129.891)">
					<g>
						<path class="st2" d="M-184.2,410.1c0,0-0.1,0-0.1,0l-53.9,0.3c-0.6,0-1.2-0.5-1.2-1c0-0.6,0.5-1.1,1.2-1l53.9-0.3
							c0.7,0,1.2,0.5,1.2,1C-183.2,409.6-183.7,410-184.2,410.1z"/>
					</g>
				</g>
				<g transform="matrix(1,0,0,1,-0.263583,77.0787)">
					<g>
						<path class="st2" d="M-185.7,449.4c0,0-0.1,0-0.1,0l-53.9,0.3c-0.6,0-1.2-0.5-1.2-1c0-0.6,0.5-1.1,1.2-1l53.9-0.3
							c0.7,0,1.2,0.5,1.2,1C-184.7,448.9-185.1,449.3-185.7,449.4z"/>
					</g>
				</g>
				<g transform="matrix(1,0,0,1,-1.81165,182.052)">
					<g>
						<path class="st2" d="M-184.8,371.3c0,0-0.1,0-0.1,0l-53.9,0.3c-0.6,0-1.2-0.5-1.2-1c0-0.6,0.5-1.1,1.2-1l53.9-0.3
							c0.7,0,1.2,0.5,1.2,1C-183.8,370.8-184.2,371.2-184.8,371.3z"/>
					</g>
				</g>
			</g>
			<path class="st12" d="M360.7,265.6c0,0,22.6-41,27.2-27.7c14.8,42.7-1.6,69.6-44.6,63.5c-43.1-6.1-47-9.5-47-9.5l30.6-15
				c0,0,32.8-0.3,32.7-0.4C359.3,276.5,363.7,270,360.7,265.6z"/>
			<g>
				<g>
					<defs>
						<path id="SVGID_6_" d="M360.7,265.6c0,0,22.6-41,27.2-27.7c14.8,42.7-1.6,69.6-44.6,63.5c-43.1-6.1-47-9.5-47-9.5l30.6-15
							c0,0,32.8-0.3,32.7-0.4C359.3,276.5,363.7,270,360.7,265.6z"/>
					</defs>
					<clipPath id="SVGID_7_">
						<use xlink:href="#SVGID_6_"  style="overflow:visible;"/>
					</clipPath>
					<g class="st17">
						<g id="Слой14_1_">
							<path class="st14" d="M358.7,275.9c0,0,15.5,0,21.6-4.9c6.1-4.9,8.7-7.4,9.8-2.9c1.1,4.5,1.1,5.1,2.5,5.8
								c1.3,0.6,2.7-17.8-1.3-21.7c-3.9-3.8-5-7.8-10.2-1.5C376,256.9,369,269.9,358.7,275.9z"/>
						</g>
						<g id="Слой17_1_">
							<path class="st14" d="M313.3,298.9c5.5,1.4,38.8-14.4,51-24.3c0,0,8.4-5.7-8.6-0.4s-48.5,20.1-47.6,22.4
								C308.9,298.9,313.3,298.9,313.3,298.9z"/>
						</g>
					</g>
				</g>
			</g>
			<path class="st12" d="M287.4,249.5c0.3-1.1-40-20.9-41.7-6.3c-8,68.3,23.5,71.2,67.2,53.6c3.2-1.3,6.2-2.5,9.1-3.6
				c35-14.3,37.1-16.9,37.1-16.9s-6.9-4.8-4.6-13c0,0-61.6,15.2-71.6,18C282.9,281.4,280.4,274.8,287.4,249.5z"/>
			<g>
				<g>
					<defs>
						<path id="SVGID_8_" d="M287.4,249.5c0.3-1.1-40-20.9-41.7-6.3c-8,68.3,23.5,71.2,67.2,53.6c3.2-1.3,6.2-2.5,9.1-3.6
							c35-14.3,37.1-16.9,37.1-16.9s-6.9-4.8-4.6-13c0,0-61.6,15.2-71.6,18C282.9,281.4,280.4,274.8,287.4,249.5z"/>
					</defs>
					<clipPath id="SVGID_9_">
						<use xlink:href="#SVGID_8_"  style="overflow:visible;"/>
					</clipPath>
					<g class="st18">
						<g id="Слой13_1_" transform="matrix(1,0,0,1,1.37765,-2.1745)">
							<path class="st14" d="M246.7,280.2c0,0,1,1.6,2.9,0.7c1.9-0.9,2.2,0.3,2.2,0.3l-2.7,3.4c0,0,1.2,1,4.4-1.7
								c3.2-2.7,3.6-4,3.6-4l-4.2,7.4c0,0,2.7,0.6,5.4-2.1c2.8-2.7,1.9-4,1.9-4l-3.2,6.7c0,0,1.1,1,3.8-1.5c2.8-2.5,5.8-3.7,9-2.5
								c3.2,1.1,3.5,3.4,21.3-1.8c0,0-8.3,1.9-15.4-0.6c-7.1-2.6-7.8-1.5-12.4-4.1c-4.6-2.6-6.5-3.9-8.8-2.8
								C252.2,274.9,246.7,280.2,246.7,280.2z"/>
						</g>
					</g>
				</g>
			</g>
		</g>
		<g id="Слой24_1_">
			<g>
				<path class="st1" d="M283.8,205.9c-0.6,0-1.1-0.4-1.1-1c-1.6-29.2,19.9-36.4,20.2-36.4c0.6-0.2,1.2,0.1,1.4,0.6
					c0.2,0.5-0.1,1.1-0.7,1.3c-0.8,0.3-20.2,6.8-18.7,34.4C284.9,205.4,284.5,205.9,283.8,205.9
					C283.8,205.9,283.8,205.9,283.8,205.9z"/>
			</g>
			<g>
				<path class="st1" d="M275.1,234.9c-0.4,0-0.8-0.3-1-0.6c-0.3-0.7-6.7-16.5-0.9-24.7c2.1-3,5.7-4.7,10.4-4.8
					c6.4-0.2,10.4,3,11.7,9.2c1.5,7.2-1.4,20.1-2.9,20.7c-0.3,0.1-0.6,0.1-0.8,0c-0.5-0.1-2.4-0.2-4-0.3c-0.6,0-1.1-0.5-1-1.1
					s0.5-1,1.2-1c1.7,0.1,2.9,0.2,3.6,0.3c1.2-3.4,4.5-16.4,0.1-22.5c-1.6-2.2-4.2-3.3-7.7-3.2c-4.1,0.1-6.9,1.4-8.7,3.9
					c-4.5,6.4-0.3,18.9,0.8,22.1l3.8-0.5c0.6-0.1,1.2,0.3,1.2,0.9c0.1,0.5-0.3,1.1-0.9,1.2l-4.7,0.6
					C275.2,234.9,275.2,234.9,275.1,234.9z"/>
			</g>
			<g transform="matrix(1.38083,0,0,1.31719,-552.977,-285.346)">
				<g>
					
						<ellipse transform="matrix(-0.9993 -3.661852e-02 3.661852e-02 -0.9993 1292.3962 764.4525)" class="st19" cx="653.2" cy="370.4" rx="5.7" ry="5.3"/>
				</g>
			</g>
			<g transform="matrix(0.748465,0,0,0.696941,366.57,287.981)">
				<g>
					
						<ellipse transform="matrix(-0.9992 -3.885088e-02 3.885088e-02 -0.9992 -43.0043 -245.4191)" class="st15" cx="-23.9" cy="-122.3" rx="5.7" ry="5.3"/>
				</g>
			</g>
		</g>
		<g id="Слой241_1_" transform="matrix(-1.381,0.182326,0.130889,0.991397,3015.35,-245.507)">
			<g>
				<path class="st1" d="M1939.5,90.5c0.4-0.1,0.7-0.6,0.7-1.1c-1.3-27.5,18.2-34.3,19-34.6c0.4-0.1,0.7-0.7,0.6-1.2
					s-0.5-0.9-0.9-0.7c-0.2,0.1-21.6,7.5-20.2,36.7C1938.6,90.2,1939,90.6,1939.5,90.5C1939.4,90.5,1939.4,90.5,1939.5,90.5z"/>
			</g>
		</g>
		<g id="Слой7_1_">
			<path class="st20" d="M302.4,157.8c0,0-0.7,21.1-1.5,30.1c-0.7,9,11.2,23.3,21.5,17.7c10.3-5.6,11.7-20.3,11.7-20.3
				s-2-23.8-1.9-27.6C332.2,157.7,310.2,163.9,302.4,157.8z"/>
			<g>
				<g>
					<defs>
						<path id="SVGID_10_" d="M302.4,157.8c0,0-0.7,21.1-1.5,30.1c-0.7,9,11.2,23.3,21.5,17.7c10.3-5.6,11.7-20.3,11.7-20.3
							s-2-23.8-1.9-27.6C332.2,157.7,310.2,163.9,302.4,157.8z"/>
					</defs>
					<clipPath id="SVGID_11_">
						<use xlink:href="#SVGID_10_"  style="overflow:visible;"/>
					</clipPath>
					<g class="st21">
						<g id="Слой6_1_">
							<path class="st22" d="M301.1,156.4l-0.7,38c0,0,0.5-3,1.9-9c0.8-3.4,4.5-12.1,6-13.6c0,0,19,0.5,25.8-13
								c4.4-8.8,0.3-4.6,0.3-4.6L301.1,156.4z"/>
							<path class="st22" d="M333.7,178.2c0,0-1.7,26.4-19,28.4c0,0,12.3,8.6,20.6-10.3C341.4,182.6,337.1,181.5,333.7,178.2z"/>
						</g>
					</g>
				</g>
			</g>
		</g>
		<g id="Слой9_1_">
			<path class="st20" d="M351.9,264.9c0,0,10-1.6,11.8-4c1.8-2.4,8.2-14.9,9.2-18.1c0.9-3.2,7.4-2.4,13.4-2.1
				c6,0.2,15.5,2.4,15.5,2.4s-1.5,3-16.3,1.4l11.1,1.9c0,0,3.5,6.4,3.7,7.1c0.3,0.7-2.4,2-6.1-3.9l-12.7-0.9l11.2,0.8
				c0,0,5.3,6.4,5.5,6.7c0.1,0.3-2.3,2.4-7.3-3.6l-0.7,9.6c0,0-2.8-0.4-2.7-8.4c0,0-3.4-0.8-6.8,0.5c0,0,0.6,9.3-5.6,13.1
				s-18.5,9.3-18.5,9.3S350.6,271.5,351.9,264.9z"/>
			<g>
				<g>
					<defs>
						<path id="SVGID_12_" d="M351.9,264.9c0,0,10-1.6,11.8-4c1.8-2.4,8.2-14.9,9.2-18.1c0.9-3.2,7.4-2.4,13.4-2.1
							c6,0.2,15.5,2.4,15.5,2.4s-1.5,3-16.3,1.4l11.1,1.9c0,0,3.5,6.4,3.7,7.1c0.3,0.7-2.4,2-6.1-3.9l-12.7-0.9l11.2,0.8
							c0,0,5.3,6.4,5.5,6.7c0.1,0.3-2.3,2.4-7.3-3.6l-0.7,9.6c0,0-2.8-0.4-2.7-8.4c0,0-3.4-0.8-6.8,0.5c0,0,0.6,9.3-5.6,13.1
							s-18.5,9.3-18.5,9.3S350.6,271.5,351.9,264.9z"/>
					</defs>
					<clipPath id="SVGID_13_">
						<use xlink:href="#SVGID_12_"  style="overflow:visible;"/>
					</clipPath>
					<g class="st23">
						<g id="Слой16_1_">
							<path class="st22" d="M354.4,276c0,0,19-7.2,21.6-11.5c2.5-4.3,3.6-6.6,2.9-9.7c-0.5-2.4,7.4-2.6,9.6-1.7
								c0,0-0.9,6.8,1.6,8.8c0,0,1.7,2.2-0.3,1.2c-2-1-2.9-6-3.8-7c-1-0.9-3.5-2.4-3.6-0.6s-0.8,10.1-9.7,14.7
								c-9,4.6-15.8,7.3-15.8,7.3L354.4,276z"/>
							<path class="st22" d="M398.4,256.4c0,0-3.3,3-7.6-3.7c0,0-0.6-1.9-7.3-2.3c0,0,5.1-0.1,7.4,0.6
								C390.9,251,394.1,257.5,398.4,256.4z"/>
							<path class="st22" d="M400.6,253.8c0,0-2,3.1-6.6-3.7l-1.5-0.6c0,0-3.6-1.5-6.2-1.8c0,0,4.7,0.2,8.5,1.1
								C394.8,248.8,398.2,255,400.6,253.8z"/>
							<path class="st22" d="M402.1,243.1c0,0-1.5,3.2-16.4,1.4l-4.4-0.6c0,0,4.4,0.2,10.4,0C397.7,243.8,400.1,244,402.1,243.1z"/>
							<path class="st22" d="M353.5,263.8c0,0-2.4,7.1,4.7,12.1l-2.6,1.5c0,0-2.2,0.4-3.8-4.7c-1.6-5.1-1.8-7.2-1-8.6
								C351.6,262.7,353.5,263.8,353.5,263.8z"/>
						</g>
					</g>
				</g>
			</g>
			<g transform="matrix(1,0,0,1,0.293433,-1.95447)">
				<path class="st20" d="M292.2,281.1c0,0-8.8-8.6-10.4-10.3c-1.6-1.6-5.9-1.4-10.8-2.5c-3.3-0.7-10.2-1.2-10.2-1.2
					s-0.5,0.3-2.2,2.5l-4.2,0.8l-6.9,9.5c0,0,2.1,1.5,7.5-5.1l-6.5,8.4c0,0,3.5,2.1,9.7-6.5l-5,8.2c0,0,3.1,1.3,7.4-5.9l-3.6,6.2
					c0,0,1.3,1.5,5.7-4.2c0,0,3.2-1.4,8.8-0.2s5.7,4.4,15.9,1.6L292.2,281.1z"/>
				<g>
					<g>
						<defs>
							<path id="SVGID_14_" d="M292.2,281.1c0,0-8.8-8.6-10.4-10.3c-1.6-1.6-5.9-1.4-10.8-2.5c-3.3-0.7-10.2-1.2-10.2-1.2
								s-0.5,0.3-2.2,2.5l-4.2,0.8l-6.9,9.5c0,0,2.1,1.5,7.5-5.1l-6.5,8.4c0,0,3.5,2.1,9.7-6.5l-5,8.2c0,0,3.1,1.3,7.4-5.9l-3.6,6.2
								c0,0,1.3,1.5,5.7-4.2c0,0,3.2-1.4,8.8-0.2s5.7,4.4,15.9,1.6L292.2,281.1z"/>
						</defs>
						<clipPath id="SVGID_15_">
							<use xlink:href="#SVGID_14_"  style="overflow:visible;"/>
						</clipPath>
						<g class="st24">
							<g id="Слой15_1_" transform="matrix(1,0,0,1,-1.37765,2.1745)">
								<path class="st22" d="M293.5,278.3c0,0-10.8,2.5-17.7,0.4c-6.9-2-9.9-1.5-11.8-0.5c-1.9,1.1-1.9,3.8-5.7,5.1
									c0,0,2.3,0.7,6.3-2.7c4-3.5,6.2-1.4,9.6-0.4c3.3,1,7.7,2.6,12.1,1.9c4.4-0.6,7.9-2.4,8.7-2.9
									C295.7,278.8,293.5,278.3,293.5,278.3z"/>
								<path class="st22" d="M254.3,282.8c0,0,2.7,0.5,7.3-6.9c0,0,2-1.2,6.4-0.9c0,0-4.5,0.1-5.9,1.6c0,0-2.8,4.2-4.4,5.6
									C256.2,283.7,256.4,282.7,254.3,282.8z"/>
								<g transform="matrix(1,0,0,1,-16.2768,-6.08399)">
									<path class="st22" d="M266.1,287.4c0,0,5.4-0.6,10.1-8c0,0,1.7-1,6.1-0.6c0,0-5,0.2-6.5,1.7c0,0-3.5,5.1-6.4,6.4
										C267.6,287.7,268.3,287.3,266.1,287.4z"/>
								</g>
								<g transform="matrix(1,0,0,1,-24.3832,-18.3323)">
									<path class="st22" d="M272,296.5c0,0,5.4-0.6,10.1-8c0,0,1.7-1,6.1-0.6c0,0-5,0.2-6.5,1.7c0,0-3.5,5.1-6.4,6.4
										C273.5,296.8,274.2,296.4,272,296.5z"/>
								</g>
								<g transform="matrix(1,0,0,1,1.08421,-0.220029)">
									<path class="st22" d="M258.2,267.8c0,0,5.3-0.6,11,0.1c0,0-2.9-1.3-6-1.6C260.2,266.1,259.7,265.5,258.2,267.8z"/>
								</g>
							</g>
						</g>
					</g>
				</g>
			</g>
		</g>
		<g transform="matrix(1,0,0,0.90403,5.66252,61.1171)">
			<g id="Слой3_1_">
				<path class="st20" d="M284,69.2c4.3,0.2,7.8,3.6,7.8,8.1c0,4.5,0.1,10.5-4,12.2c-3.2,1.3-9.2-2.4-10.1-10.4
					C277.3,74.7,278.2,69,284,69.2z"/>
				<g>
					<g>
						<defs>
							<path id="SVGID_16_" d="M284,69.2c4.3,0.2,7.8,3.6,7.8,8.1c0,4.5,0.1,10.5-4,12.2c-3.2,1.3-9.2-2.4-10.1-10.4
								C277.3,74.7,278.2,69,284,69.2z"/>
						</defs>
						<clipPath id="SVGID_17_">
							<use xlink:href="#SVGID_16_"  style="overflow:visible;"/>
						</clipPath>
						<g class="st25">
							<g id="Слой22_1_" transform="matrix(-1.11559,0,0,1.10616,2840.79,-67.1853)">
								<path class="st22" d="M2291.4,122.6c0,0-1.3,4.9-0.8,11.2c0,0,3.1-11.6,7.3-6.3C2297.9,127.5,2301.1,125.5,2291.4,122.6z"/>
							</g>
						</g>
					</g>
				</g>
			</g>
		</g>
		<g transform="matrix(-1.01401,0,0,0.90403,2691.54,61.432)">
			<g id="Слой31_1_">
				<path class="st20" d="M2314.7,68.9c4.3,0.2,7.8,3.6,7.8,8.1c0,4.5,0.1,10.5-4,12.2c-3.2,1.3-9.2-2.4-10.1-10.4
					C2307.9,74.4,2308.8,68.7,2314.7,68.9z"/>
				<g>
					<g>
						<defs>
							<path id="SVGID_18_" d="M2314.7,68.9c4.3,0.2,7.8,3.6,7.8,8.1c0,4.5,0.1,10.5-4,12.2c-3.2,1.3-9.2-2.4-10.1-10.4
								C2307.9,74.4,2308.8,68.7,2314.7,68.9z"/>
						</defs>
						<clipPath id="SVGID_19_">
							<use xlink:href="#SVGID_18_"  style="overflow:visible;"/>
						</clipPath>
						<g class="st26">
							<g id="Слой221_1_" transform="matrix(-0.986182,0,0,1.10616,2654.35,-67.9535)">
								<path class="st22" d="M344,122.9c0,0-1.3,4.9-0.8,11.2c0,0,3.1-11.6,7.3-6.3C350.5,127.8,353.7,125.8,344,122.9z"/>
							</g>
						</g>
					</g>
				</g>
			</g>
		</g>
		<g transform="matrix(1.06536,0,0,1.06859,-97.4035,-47.156)">
			<g id="Слой2_1_">
				<path class="st20" d="M389.4,132.6c15.6-0.6,24.5,11.2,24.3,32.1c-0.2,18.6-9.3,33.4-25.2,33.5c-15.6,0.1-24.2-14.9-24.2-33.5
					C364.2,143.5,373.9,133.3,389.4,132.6z"/>
				<g>
					<g>
						<defs>
							<path id="SVGID_20_" d="M389.4,132.6c15.6-0.6,24.5,11.2,24.3,32.1c-0.2,18.6-9.3,33.4-25.2,33.5
								c-15.6,0.1-24.2-14.9-24.2-33.5C364.2,143.5,373.9,133.3,389.4,132.6z"/>
						</defs>
						<clipPath id="SVGID_21_">
							<use xlink:href="#SVGID_20_"  style="overflow:visible;"/>
						</clipPath>
						<g class="st27">
							<g transform="matrix(0.938649,0,0,0.935813,91.4278,44.1292)">
								<path class="st22" d="M287.8,124.1c0,0,19.1,2.1,32.4-7.3c3.2-2.3,7.4-5,9.6-8.4c0,0,6.7,13.2,16.2,15.7c0,0,1.9-28.5-20-31
									C325.9,93.2,286.6,79,287.8,124.1z"/>
							</g>
							<g transform="matrix(0.938649,0,0,0.935813,92.4126,25.1477)">
								<path class="st8" d="M287.8,144.2c0,0,29.6-2,40.7-19.1c0,0,7.3,14.6,16.9,17.2c0,0,1.7-31.5-20.2-34
									C325.1,108.3,286.6,99.1,287.8,144.2z"/>
							</g>
						</g>
					</g>
				</g>
			</g>
		</g>
		<g transform="matrix(0.99394,-0.109928,0.109928,0.99394,-59.352,155.806)">
			<g>
				<path class="st28" d="M395,12c-0.2,0-0.4-0.1-0.6-0.2c-4.5-3.5-10.3-3.1-10.3-3.1c-0.6,0-1.1-0.4-1.2-0.9c0-0.5,0.4-1.1,1-1.1
					c0.3,0,6.7-0.5,11.9,3.5c0.5,0.3,0.6,1,0.2,1.4C395.7,11.9,395.4,12,395,12z"/>
			</g>
		</g>
		<path class="st29" d="M307.8,150.4c0,0,6.6,4.3,15.9,0.4c0,0-3.5,5.4-8,5.3C311.7,156.1,307.8,150.4,307.8,150.4z"/>
		<g id="Слой4_1_" transform="matrix(0.990957,0.134176,-0.137823,1.01789,102.778,-193.738)">
			<g class="st30">
				<g transform="matrix(0.954237,0.299052,-0.299052,0.954237,266.358,-352.151)">
					
						<ellipse transform="matrix(-8.499175e-02 0.9964 -0.9964 -8.499175e-02 812.9941 514.4901)" class="st22" cx="170.3" cy="630.5" rx="3.5" ry="5.3"/>
				</g>
			</g>
		</g>
		<g id="Слой41_1_" transform="matrix(-1.00895,0.177182,0.177663,1.01169,2569.78,-244.144)">
			<g class="st30">
				<g transform="matrix(0.954237,0.299052,-0.299052,0.954237,269.415,-349.203)">
					<path class="st22" d="M1960.9-251.9c3.1,0.1,5.7,0.1,5.7,0.1S1964.1-251.8,1960.9-251.9s-5.7-0.1-5.7-0.1
						S1957.8-252,1960.9-251.9z"/>
				</g>
			</g>
		</g>
		<path class="st22" d="M314.6,137.8c0,0,0.1,0.9-0.9,2.8c-1,1.9-2.8,2.7-2.6,3.7c0.1,1,2.1,0.7,2.9,2c0.7,1.2,3,1.5,3.6,0
			c0.5-1.1,3-0.6,3.1-1.8c0-1.1-1.7-2.1-2.6-4c-1.1-2-0.4-8.1-1.9-8.1C314.7,132.5,314.8,136.7,314.6,137.8z"/>
		<g>
			<g>
				<defs>
					<path id="SVGID_22_" d="M314.6,137.8c0,0,0.1,0.9-0.9,2.8c-1,1.9-2.8,2.7-2.6,3.7c0.1,1,2.1,0.7,2.9,2c0.7,1.2,3,1.5,3.6,0
						c0.5-1.1,3-0.6,3.1-1.8c0-1.1-1.7-2.1-2.6-4c-1.1-2-0.4-8.1-1.9-8.1C314.7,132.5,314.8,136.7,314.6,137.8z"/>
				</defs>
				<clipPath id="SVGID_23_">
					<use xlink:href="#SVGID_22_"  style="overflow:visible;"/>
				</clipPath>
				<g class="st31">
					<path class="st29" d="M310.5,144.3c0,0,1.3-0.3,2.6,0.4c1.2,0.7,1.4,1,2.9,1c1.5,0,1.6-0.7,2.7-1.3c1.1-0.5,1.7-0.3,2.6-0.1
						c0.9,0.2-2.6,3.3-3.7,3.6C316.3,148.2,310.7,147.1,310.5,144.3z"/>
				</g>
			</g>
		</g>
		<g transform="matrix(1,0,0,1,-8.57116,0.042329)">
			
				<ellipse transform="matrix(-0.1464 0.9892 -0.9892 -0.1464 489.8119 -157.9378)" class="st32" cx="313" cy="132.4" rx="2.7" ry="3.9"/>
		</g>
		<g transform="matrix(1,0,0,1,79.4339,2.03644)">
			
				<ellipse transform="matrix(-0.1464 0.9892 -0.9892 -0.1464 414.9672 -96.3451)" class="st32" cx="249.1" cy="130.9" rx="2.7" ry="3.9"/>
		</g>
		<g transform="matrix(1,0,0,1,0.38942,4.08202)">
			<g transform="matrix(1,0,0,1,-5.66901,0.686603)">
				<g>
					<path class="st33" d="M308.4,138.7c-5.5,0-10-4.3-10-9.5c0-5.2,4.5-9.5,10-9.5s10,4.3,10,9.5
						C318.4,134.4,313.9,138.7,308.4,138.7z M308.4,121.8c-4.3,0-7.8,3.3-7.8,7.4c0,4.1,3.5,7.4,7.8,7.4s7.8-3.3,7.8-7.4
						C316.2,125.1,312.7,121.8,308.4,121.8z"/>
				</g>
			</g>
			<g transform="matrix(1,0,0,1,92.2148,3.45732)">
				<g>
					<path class="st33" d="M237.2,136.6c-5.5,0-10-4.3-10-9.5s4.5-9.5,10-9.5c5.5,0,10,4.3,10,9.5S242.7,136.6,237.2,136.6z
						 M237.2,119.8c-4.3,0-7.8,3.3-7.8,7.4c0,4.1,3.5,7.4,7.8,7.4c4.3,0,7.8-3.3,7.8-7.4C245,123.1,241.5,119.8,237.2,119.8z"/>
				</g>
			</g>
			<g transform="matrix(1,0,0,1,-3.04784,3.9191)">
				<g>
					<path class="st33" d="M323.8,128.2L323.8,128.2l-9.2-0.2c-0.6,0-1.1-0.5-1.1-1.1c0-0.5,0.5-1,1.1-1c0,0,0,0,0,0l9.1,0.2
						c0.6,0,1.1,0.5,1.1,1.1C324.9,127.8,324.4,128.2,323.8,128.2z"/>
				</g>
			</g>
		</g>
		<g transform="matrix(1,0,0,1,-5.66901,0.686603)">
			<g>
				<path class="st5" d="M308.7,141.7c-5.5,0-10-4.3-10-9.5c0-5.2,4.5-9.5,10-9.5s10,4.3,10,9.5
					C318.6,137.5,314.2,141.7,308.7,141.7z M308.7,124.9c-4.3,0-7.8,3.3-7.8,7.4s3.5,7.4,7.8,7.4c4.3,0,7.8-3.3,7.8-7.4
					C316.5,128.2,312.9,124.9,308.7,124.9z"/>
			</g>
		</g>
		<g transform="matrix(1,0,0,1,92.2148,3.45732)">
			<g>
				<path class="st5" d="M237.5,139.7c-5.5,0-10-4.3-10-9.5c0-5.2,4.5-9.5,10-9.5s10,4.3,10,9.5C247.5,135.4,243,139.7,237.5,139.7z
					 M237.5,122.8c-4.3,0-7.8,3.3-7.8,7.4c0,4.1,3.5,7.4,7.8,7.4c4.3,0,7.8-3.3,7.8-7.4C245.3,126.1,241.8,122.8,237.5,122.8z"/>
			</g>
		</g>
		<g transform="matrix(1,0,0,1,-3.04784,3.9191)">
			<g>
				<path class="st5" d="M323.6,131.7L323.6,131.7l-8.6-0.2c-0.6,0-1.1-0.5-1.1-1.1c0-0.6,0.4-1.1,1.1-1l8.6,0.2
					c0.6,0,1.1,0.5,1.1,1.1C324.7,131.2,324.2,131.7,323.6,131.7z"/>
			</g>
		</g>
		<g transform="matrix(0.542373,0,0,0.545967,640.831,283.822)">
			<path class="st34" d="M-560.8-286.3c0,0,9.9-5.9,12.6-7.3"/>
		</g>
		<g transform="matrix(-0.478426,0,0,0.532838,1937.71,288.993)">
			<g>
				<path class="st5" d="M3430.8-302.8c0.4,0,0.9-0.1,1.3-0.3c0.1-0.1,9.9-5.9,12.5-7.2c1.1-0.5,1.5-1.7,0.8-2.6
					c-0.6-0.9-2-1.2-3.1-0.7c-2.8,1.4-12.4,7.1-12.8,7.4c-1,0.6-1.2,1.8-0.5,2.7C3429.3-303.1,3430.1-302.8,3430.8-302.8z"/>
			</g>
		</g>
		<g id="Слой20_1_">
			
				<ellipse transform="matrix(-0.6295 0.777 -0.777 -0.6295 673.6617 -36.2806)" class="st12" cx="345.5" cy="142.5" rx="3.2" ry="3.3"/>
			<g transform="matrix(1,0,0,1,-204.188,3.95758)">
				
					<ellipse transform="matrix(-0.6295 0.777 -0.777 -0.6295 913.3978 -156.4708)" class="st12" cx="494" cy="139.5" rx="3.2" ry="3.3"/>
			</g>
		</g>
		<g transform="matrix(0.99394,-0.109928,0.109928,0.99394,-59.352,155.806)">
			<g>
				<path class="st28" d="M358.7,8c-0.4,0-0.7-0.2-0.9-0.6c-0.3-0.5,0-1.1,0.5-1.4c6-2.8,12.1-0.9,12.4-0.9c0.6,0.2,0.9,0.8,0.7,1.3
					c-0.2,0.5-0.8,0.8-1.4,0.7c0,0-5.6-1.6-10.7,0.7C359.2,8,359,8,358.7,8z"/>
			</g>
		</g>
	</g>
</g>
</svg>
